<svg id="Layer_1" data-name="Layer 1" xmlns="http://www.w3.org/2000/svg" width="1.72in" height="1.72in" viewBox="0 0 123.88 123.99">
  <defs>
    <style>
      .cls-1 {
        fill: #fff;
        stroke: #231f20;
        stroke-miterlimit: 10;
        stroke-width: 0.25px;
      }
    </style>
  </defs>
  <path class="cls-1" d="M120.66,72.37a14.88,14.88,0,1,0,14.88,14.88A14.88,14.88,0,0,0,120.66,72.37Zm0,20.55a5.67,5.67,0,1,1,5.67-5.67A5.67,5.67,0,0,1,120.66,92.92Z" transform="translate(-85.1 -52.4)"/>
  <path class="cls-1" d="M174.13,52.52a34.73,34.73,0,1,0,34.73,34.73A34.73,34.73,0,0,0,174.13,52.52Zm0,40.4a5.67,5.67,0,1,1,5.67-5.67A5.67,5.67,0,0,1,174.13,92.92Z" transform="translate(-85.1 -52.4)"/>
  <path class="cls-1" d="M173.42,126.65a14.89,14.89,0,1,1-14.88,14.89A14.89,14.89,0,0,1,173.42,126.65Zm0,20.56a5.67,5.67,0,1,0-5.66-5.67A5.67,5.67,0,0,0,173.42,147.21Z" transform="translate(-85.1 -52.4)"/>
  <path class="cls-1" d="M120,106.81a34.73,34.73,0,1,1-34.72,34.73A34.73,34.73,0,0,1,120,106.81Zm0,40.4a5.67,5.67,0,1,0-5.67-5.67A5.67,5.67,0,0,0,120,147.21Z" transform="translate(-85.1 -52.4)"/>
</svg>
